<svg xmlns="http://www.w3.org/2000/svg" viewBox="0 0 100 100" width="100" height="100">
  <!-- Outer rounded hexagon ring -->
  <path id="outer-ring" fill="#FF8C00" fill-rule="evenodd" d="
    M92,43.1 Q96,50 92,56.9 L77,82.9 Q73,89.8 65,89.8 L35,89.8 Q27,89.8 23,82.9 L8,56.9 Q4,50 8,43.1 L23,17.1 Q27,10.2 35,10.2 L65,10.2 Q73,10.2 77,17.1 Z
    M81,44.8 Q84,50 81,55.2 L70,74.2 Q67,79.4 61,79.4 L39,79.4 Q33,79.4 30,74.2 L19,55.2 Q16,50 19,44.8 L30,25.8 Q33,20.6 39,20.6 L61,20.6 Q67,20.6 70,25.8 Z
  "/>
  <!-- Inner rotated diamond ring -->
  <path id="inner-ring" fill="#FF8C00" fill-rule="evenodd" d="
    M47.2,36.8 Q50,34 52.8,36.8 L63.2,47.2 Q66,50 63.2,52.8 L52.8,63.2 Q50,66 47.2,63.2 L36.8,52.8 Q34,50 36.8,47.2 Z
    M47.9,42.1 Q50,40 52.1,42.1 L57.9,47.9 Q60,50 57.9,52.1 L52.1,57.9 Q50,60 47.9,57.9 L42.1,52.1 Q40,50 42.1,47.9 Z
  "/>
</svg>
